PathFileType	4	(X/Y/Z)	C:\Users\86182\Documents\cortex\Trimmed_M4_H2.trc
DataRate	CameraRate	NumFrames	NumMarkers	Units	OrigDataRate	OrigDataStartFrame	OrigNumFrames
100.00	100.00	       112	2	mm	100.00	361	       901
Frame#	Time	gripper			box			
		X1	Y1	Z1	X2	Y2	Z2	

361	3.600	276.16708	151.18245	292.68436	278.35767	147.97527	156.89789	
362	3.610	276.17941	151.17216	292.70746	278.36151	147.96106	156.91544	
363	3.620	276.19220	151.16258	292.72391	278.36621	147.94827	156.92285	
364	3.630	276.20398	151.15465	292.73404	278.37015	147.93776	156.92401	
365	3.640	276.21405	151.14861	292.73840	278.37213	147.92931	156.92203	
366	3.650	276.22238	151.14429	292.73801	278.37143	147.92223	156.91920	
367	3.660	276.22906	151.14146	292.73438	278.36823	147.91612	156.91699	
368	3.670	276.23419	151.14000	292.72952	278.36356	147.91119	156.91614	
369	3.680	276.23801	151.13977	292.72540	278.35870	147.90799	156.91693	
370	3.690	276.24100	151.14040	292.72311	278.35486	147.90665	156.91914	
371	3.700	276.24350	151.14130	292.72278	278.35294	147.90611	156.92215	
372	3.710	276.24496	151.14175	292.72327	278.35361	147.90414	156.92465	
373	3.720	276.24350	151.14114	292.72205	278.35678	147.89793	156.92471	
374	3.730	276.23547	151.13892	292.71588	278.36194	147.88496	156.91951	
375	3.740	276.21671	151.13452	292.70157	278.36777	147.86346	156.90552	
376	3.750	276.18365	151.12720	292.67700	278.37216	147.83267	156.87881	
377	3.760	276.13474	151.11621	292.64215	278.37256	147.79358	156.83600	
378	3.770	276.07153	151.10126	292.59952	278.36700	147.74939	156.77527	
379	3.780	275.99966	151.08299	292.55341	278.35504	147.70488	156.69821	
380	3.790	275.92831	151.06343	292.50885	278.33786	147.66435	156.61072	
381	3.800	275.86707	151.04524	292.46991	278.31772	147.63045	156.52194	
382	3.810	275.82178	151.03041	292.43890	278.29788	147.60431	156.44165	
383	3.820	275.79276	151.01961	292.41681	278.28204	147.58641	156.37759	
384	3.830	275.77655	151.01257	292.40363	278.27368	147.57675	156.33429	
385	3.840	275.76865	151.00848	292.39838	278.27420	147.57431	156.31284	
386	3.850	275.76505	151.00633	292.39954	278.28268	147.57669	156.31125	
387	3.860	275.76355	151.00508	292.40497	278.29651	147.58078	156.32462	
388	3.870	275.76398	151.00391	292.41211	278.31271	147.58366	156.34601	
389	3.880	275.76749	151.00237	292.41837	278.32849	147.58337	156.36798	
390	3.890	275.77524	151.00041	292.42175	278.34171	147.57951	156.38455	
391	3.900	275.78699	150.99846	292.42123	278.35071	147.57321	156.39243	
392	3.910	275.80096	150.99713	292.41708	278.35449	147.56650	156.39098	
393	3.920	275.81454	150.99684	292.41058	278.35315	147.56110	156.38177	
394	3.930	275.82513	150.99760	292.40359	278.34729	147.55782	156.36826	
395	3.940	275.83069	150.99922	292.39807	278.33807	147.55670	156.35513	
396	3.950	275.83008	151.00139	292.39532	278.32764	147.55742	156.34714	
397	3.960	275.82343	151.00383	292.39597	278.31882	147.55952	156.34717	
398	3.970	275.81189	151.00626	292.39972	278.31400	147.56242	156.35539	
399	3.980	275.79773	151.00841	292.40564	278.31390	147.56541	156.36896	
400	3.990	275.78357	151.01009	292.41226	278.31708	147.56793	156.38345	
401	4.000	275.77197	151.01129	292.41794	278.32092	147.56967	156.39468	
402	4.010	275.76459	151.01215	292.42145	278.32303	147.57059	156.39986	
403	4.020	275.76212	151.01270	292.42218	278.32251	147.57083	156.39764	
404	4.030	275.76413	151.01303	292.42032	278.32068	147.57060	156.38818	
405	4.040	275.76944	151.01318	292.41656	278.31998	147.57016	156.37332	
406	4.050	275.77621	151.01318	292.41211	278.32217	147.56967	156.35687	
407	4.060	275.78253	151.01299	292.40826	278.32776	147.56934	156.34360	
408	4.070	275.78696	151.01256	292.40598	278.33643	147.56917	156.33713	
409	4.080	275.78897	151.01187	292.40570	278.34735	147.56894	156.33864	
410	4.090	275.78888	151.01091	292.40717	278.35922	147.56834	156.34653	
411	4.100	275.78766	151.00975	292.40973	278.37067	147.56729	156.35748	
412	4.110	275.78647	151.00856	292.41232	278.38037	147.56599	156.36801	
413	4.120	275.78635	151.00751	292.41394	278.38727	147.56485	156.37543	
414	4.130	275.78796	151.00681	292.41394	278.39096	147.56435	156.37805	
415	4.140	275.79117	151.00659	292.41217	278.39120	147.56477	156.37524	
416	4.150	275.79523	151.00693	292.40900	278.38739	147.56612	156.36771	
417	4.160	275.79922	151.00769	292.40518	278.37939	147.56790	156.35736	
418	4.170	275.80200	151.00870	292.40186	278.36792	147.56964	156.34717	
419	4.180	275.80234	151.00975	292.40005	278.35464	147.57109	156.34052	
420	4.190	275.79932	151.01073	292.40057	278.34186	147.57220	156.34016	
421	4.200	275.79266	151.01160	292.40369	278.33185	147.57291	156.34700	
422	4.210	275.78281	151.01237	292.40900	278.32574	147.57315	156.35953	
423	4.220	275.77151	151.01302	292.41553	278.32303	147.57298	156.37445	
424	4.230	275.76141	151.01341	292.42157	278.32251	147.57259	156.38785	
425	4.240	275.75510	151.01355	292.42557	278.32370	147.57208	156.39635	
426	4.250	275.75403	151.01341	292.42645	278.32684	147.57164	156.39789	
427	4.260	275.75848	151.01308	292.42401	278.33243	147.57144	156.39207	
428	4.270	275.76758	151.01254	292.41882	278.34030	147.57155	156.38023	
429	4.280	275.77948	151.01181	292.41205	278.34961	147.57175	156.36530	
430	4.290	275.79178	151.01091	292.40530	278.35910	147.57172	156.35107	
431	4.300	275.80179	151.00998	292.40009	278.36752	147.57124	156.34116	
432	4.310	275.80743	151.00928	292.39746	278.37378	147.57028	156.33806	
433	4.320	275.80750	151.00894	292.39789	278.37677	147.56905	156.34241	
434	4.330	275.80206	151.00909	292.40125	278.37531	147.56789	156.35303	
435	4.340	275.79242	151.00969	292.40671	278.36884	147.56711	156.36737	
436	4.350	275.78104	151.01057	292.41290	278.35855	147.56688	156.38213	
437	4.360	275.77103	151.01151	292.41809	278.34695	147.56721	156.39407	
438	4.370	275.76498	151.01224	292.42099	278.33679	147.56795	156.40108	
439	4.380	275.76367	151.01271	292.42114	278.33005	147.56882	156.40231	
440	4.390	275.76630	151.01297	292.41904	278.32770	147.56963	156.39818	
441	4.400	275.77124	151.01309	292.41559	278.32959	147.57033	156.39029	
442	4.410	275.77710	151.01311	292.41168	278.33435	147.57085	156.38138	
443	4.420	275.78275	151.01299	292.40814	278.34042	147.57086	156.37430	
444	4.430	275.78732	151.01268	292.40558	278.34662	147.56998	156.37071	
445	4.440	275.79056	151.01212	292.40430	278.35233	147.56804	156.37076	
446	4.450	275.79263	151.01129	292.40417	278.35712	147.56535	156.37354	
447	4.460	275.79391	151.01031	292.40479	278.36075	147.56259	156.37775	
448	4.470	275.79477	151.00931	292.40573	278.36316	147.56039	156.38196	
449	4.480	275.79553	151.00835	292.40668	278.36496	147.55913	156.38495	
450	4.490	275.79675	151.00749	292.40714	278.36682	147.55881	156.38614	
451	4.500	275.79868	151.00681	292.40689	278.36914	147.55933	156.38547	
452	4.510	275.80112	151.00633	292.40601	278.37192	147.56056	156.38339	
453	4.520	275.80338	151.00606	292.40491	278.37482	147.56227	156.38071	
454	4.530	275.80460	151.00597	292.40427	278.37726	147.56415	156.37854	
455	4.540	275.80396	151.00601	292.40460	278.37888	147.56601	156.37770	
456	4.550	275.80103	151.00627	292.40613	278.37976	147.56781	156.37860	
457	4.560	275.79575	151.00677	292.40887	278.38040	147.56978	156.38086	
458	4.570	275.78867	151.00754	292.41241	278.38132	147.57230	156.38353	
459	4.580	275.78082	151.00853	292.41611	278.38254	147.57558	156.38538	
460	4.590	275.77374	151.00967	292.41907	278.38361	147.57936	156.38519	
461	4.600	275.76895	151.01085	292.42047	278.38361	147.58287	156.38196	
462	4.610	275.76740	151.01189	292.41992	278.38156	147.58524	156.37503	
463	4.620	275.76892	151.01268	292.41776	278.37674	147.58586	156.36447	
464	4.630	275.77252	151.01314	292.41470	278.36896	147.58449	156.35176	
465	4.640	275.77676	151.01314	292.41193	278.35931	147.58110	156.33942	
466	4.650	275.78033	151.01257	292.41034	278.35028	147.57610	156.33032	
467	4.660	275.78250	151.01134	292.41071	278.34515	147.57007	156.32660	
468	4.670	275.78293	151.00943	292.41315	278.34647	147.56366	156.32901	
469	4.680	275.78210	151.00691	292.41724	278.35510	147.55733	156.33636	
470	4.690	275.78140	151.00395	292.42188	278.37027	147.55125	156.34573	
471	4.700	275.78253	151.00076	292.42560	278.38980	147.54568	156.35373	
472	4.710	275.78659	150.99774	292.42715	278.41043	147.54112	156.35788	
